<svg width="46" height="46" viewBox="0 0 46 46" fill="none" xmlns="http://www.w3.org/2000/svg">
<circle cx="23" cy="23" r="23" fill="#CEE5D9"/>
<path d="M32 28.3333V29C31.9985 29.5299 31.779 30.0378 31.3899 30.4125C31.0008 30.7872 30.4734 30.9985 29.9231 31H16.0769C15.5266 30.9985 14.9992 30.7872 14.6101 30.4125C14.221 30.0378 14.0015 29.5299 14 29V28.3333C14.0005 28.1567 14.0737 27.9874 14.2034 27.8625C14.333 27.7377 14.5089 27.6671 14.6923 27.6667H20.9231V29H25.0769V27.6667H31.3077C31.4911 27.6671 31.667 27.7377 31.7966 27.8625C31.9262 27.9874 31.9995 28.1567 32 28.3333H32ZM20.9231 26.3333H14.6923V17C14.6939 16.4701 14.9133 15.9622 15.3024 15.5875C15.6915 15.2128 16.2189 15.0015 16.7692 15H29.2308C29.7811 15.0015 30.3085 15.2128 30.6976 15.5875C31.0867 15.9622 31.3062 16.4701 31.3077 17V26.3333H25.0769C24.7101 26.3344 24.3585 26.4752 24.099 26.725C23.8396 26.9748 23.6934 27.3134 23.6923 27.6667H22.3077C22.3066 27.3134 22.1604 26.9749 21.901 26.725C21.6415 26.4751 21.29 26.3344 20.9231 26.3333ZM17.4615 18.3333C17.4622 18.51 17.5353 18.6793 17.6649 18.8042C17.7946 18.929 17.9704 18.9994 18.1538 19H27.8461C28.0935 19 28.3221 18.8729 28.4457 18.6667C28.5693 18.4604 28.5693 18.2062 28.4457 18C28.3221 17.7937 28.0935 17.6667 27.8461 17.6667H18.1538C17.9704 17.6672 17.7945 17.7376 17.6649 17.8625C17.5353 17.9873 17.4622 18.1567 17.4615 18.3333V18.3333ZM18.1538 21.6667H27.8462C28.0936 21.6667 28.3221 21.5396 28.4457 21.3333C28.5694 21.1271 28.5694 20.8729 28.4457 20.6667C28.3221 20.4604 28.0936 20.3333 27.8462 20.3333H18.1538C17.9064 20.3333 17.6779 20.4604 17.5543 20.6667C17.4306 20.8729 17.4306 21.1271 17.5543 21.3333C17.6779 21.5396 17.9064 21.6667 18.1538 21.6667Z" fill="#006D77"/>
</svg>
