<svg width="46" height="46" viewBox="0 0 46 46" fill="none" xmlns="http://www.w3.org/2000/svg">
<circle cx="23" cy="23" r="23" fill="#CEE5D9"/>
<path d="M21.2773 29.7409H13.9056C13.8549 29.7409 13.8057 29.7209 13.7696 29.6847C13.7335 29.6486 13.7135 29.5994 13.7135 29.5487L13.7142 17.5293H13.0008L13 30.4095H21.1314C21.4373 30.4095 21.7294 30.5555 21.9124 30.8C22.0238 30.9484 22.2007 31.0368 22.3867 31.0368H22.7534C22.6588 30.3064 22.033 29.7406 21.2774 29.7406L21.2773 29.7409Z" fill="#006D77"/>
<path d="M20.621 29.1285L15.3615 27.8525C15.2753 27.8318 15.2146 27.7548 15.2146 27.6664L15.2155 16.7002L14.0985 16.7003V17.3422L14.0978 29.3563H21.2674C21.0768 29.2726 20.8623 29.1957 20.6209 29.1288L20.621 29.1285Z" fill="#006D77"/>
<path d="M21.135 16.3337C19.8551 15.967 16.5142 15.2067 15.5998 15L15.5989 27.5153L20.7176 28.7567C21.8315 29.0665 22.4372 29.5692 22.7655 30.0419L22.7663 18.0762C22.747 17.1431 21.7554 16.5119 21.135 16.3336L21.135 16.3337Z" fill="#006D77"/>
<path d="M32.2055 17.5293L32.2046 29.5487C32.2046 29.6549 32.1185 29.7409 32.0125 29.7409H24.6408C23.8851 29.7409 23.2595 30.3066 23.1649 31.0369H23.5315C23.7167 31.0369 23.8936 30.9486 24.005 30.8002C24.1887 30.5558 24.4809 30.4096 24.786 30.4096H32.9181L32.919 17.5294L32.2055 17.5293Z" fill="#006D77"/>
<path d="M24.6474 29.3559H31.8202L31.8209 16.7002H30.704L30.7033 27.6664C30.7033 27.7548 30.6426 27.8316 30.5564 27.8525L25.2908 29.13C25.0503 29.1969 24.8373 29.273 24.6475 29.356L24.6474 29.3559Z" fill="#006D77"/>
<path d="M25.1937 28.7582L30.3189 27.5153L30.3196 15C29.4048 15.2067 26.0641 15.967 24.7843 16.3337C24.164 16.5121 23.1723 17.1432 23.1532 18.0802L23.1525 30.0402C23.48 29.5682 24.0841 29.0662 25.1941 28.7581L25.1937 28.7582Z" fill="#006D77"/>
</svg>
