<svg width="46" height="46" viewBox="0 0 46 46" fill="none" xmlns="http://www.w3.org/2000/svg">
    <circle cx="23" cy="23" r="23" fill="#CEE5D9"/>
    <path d="M28.7026 14.5951C28.2183 14.5951 27.764 14.7931 27.3205 15.2315C26.5602 15.9918 26.482 17.0201 27.2192 17.8802L22.0487 22.0243C21.8178 22.2584 21.8217 22.672 22.0557 22.8648C22.1656 22.9952 22.349 23.0505 22.5227 23.0328C22.7207 23.014 22.9154 22.9586 23.0677 22.857C23.4011 22.6177 23.8278 22.2053 24.5825 21.6199C24.8407 21.8182 25.1302 21.9482 25.4579 21.9482C26.1046 21.9482 26.7302 21.6115 27.273 21.0688C28.4581 19.8837 28.4581 18.0804 27.2726 16.8954C26.7301 16.353 26.1046 16.0164 25.4579 16.0164L25.4579 16.0164ZM25.703 17.1759C25.5206 17.3584 25.2292 17.4826 24.9082 17.4826C24.5874 17.4826 24.2955 17.3584 24.113 17.1757C23.5736 16.6363 23.5735 15.8635 24.1129 15.324C24.2947 15.1415 24.5857 15.0171 24.9063 15.0171C25.2269 15.0171 25.5184 15.1414 25.7004 15.3237C26.2399 15.863 26.2399 16.6358 25.703 17.1758L25.703 17.1759ZM32.8312 12.8848L32.8156 12.6087C32.7998 12.3367 32.5715 12.1085 32.2995 12.0927L32.0238 12.0771C31.9804 12.0747 31.6535 12.0462 31.1972 12.0462C29.6587 12.0462 25.4511 12.3009 22.6476 15.1043C22.3419 15.41 22.0512 15.7263 21.7796 16.0476C21.4053 15.8998 20.8594 15.7939 20.3036 15.7939C19.3487 15.7939 18.4716 16.1664 17.972 16.6654L15.195 19.4424C14.9821 19.6553 15.0893 19.9579 15.1533 20.1416C15.1649 20.1755 15.177 20.2099 15.1872 20.2449C15.2448 20.5164 15.3848 20.7649 15.5637 20.9435C15.6812 21.061 15.817 21.1655 15.9705 21.2416L18.5136 22.1354L15.9679 24.6802C15.8702 24.778 15.812 24.9055 15.8056 25.0382C15.8052 25.0546 15.8018 25.1523 15.8238 25.2928C14.7898 25.5856 13.3533 26.2895 13.1001 28.0357C13.0734 28.2075 13.1834 28.3794 13.3733 28.4905C13.5632 28.6016 13.8354 28.622 14.0644 28.5388C14.4562 28.3784 15.0135 28.2148 15.4074 28.2306C15.1044 28.6251 14.5788 29.085 13.2462 29.0364C12.9996 29.0287 12.7744 29.1896 12.6946 29.3956C12.6145 29.6018 12.7723 29.8492 13.0306 29.905C13.0783 29.9142 13.9384 30.0817 14.8716 30.1409C14.0596 30.9195 12.9777 31.7262 11.9252 31.7262C11.6486 31.7262 11.3875 31.874 11.3548 32.1508C11.3219 32.4275 11.4799 32.6939 11.7545 32.7397C11.7993 32.7467 12.3705 32.8334 13.1236 32.8334C14.0965 32.8334 15.6133 32.6302 16.9924 31.6716C18.2757 30.7898 19.1323 29.4224 19.6174 27.5877C19.7792 27.6091 19.9198 27.6155 20.0026 27.6155C20.021 27.6155 20.0333 27.6152 20.0375 27.6151C20.1769 27.6103 20.3094 27.5492 20.4123 27.4486L23.159 24.702L24.4148 27.5495C24.482 27.7017 24.5788 27.8445 24.7049 27.9702C24.933 28.1984 25.2364 28.3494 25.5786 28.4098C25.6715 28.4264 25.7665 28.4355 25.8612 28.4355C26.0177 28.4355 26.1645 28.3784 26.2981 28.2746L29.1796 25.3931C30.2796 24.2931 30.5143 22.7686 29.8225 21.5007C30.2155 21.1369 30.5953 20.7595 30.9585 20.3804C34.0519 17.2865 33.6655 12.693 32.831 12.6058L32.8312 12.8848ZM27.6937 22.3096C27.6784 22.3245 27.6645 22.3426 27.6482 22.3586C26.4708 23.2884 23.6782 24.8596 21.6486 24.5536C21.1847 24.4823 20.7931 24.2887 20.4817 23.978C20.1765 23.6728 19.9701 23.2564 19.8721 22.7457C19.8687 22.7247 19.8659 22.7068 19.8609 22.6841C19.4838 20.5238 22.3703 17.6915 22.6516 17.3928C22.9293 17.0925 23.2237 16.7939 23.5346 16.4974C26.2288 13.8031 30.5219 13.5633 31.9364 13.5633C32.1181 13.5633 32.266 13.5669 32.3714 13.5703C32.4105 14.7964 32.4114 19.2733 29.4777 22.207C29.0386 22.6457 28.5705 23.0697 28.0919 23.4685L27.6937 22.3096Z" fill="#098591"/>
</svg>
