<svg width="15" height="14" viewBox="0 0 15 14" fill="none" xmlns="http://www.w3.org/2000/svg">
<path d="M4.50643 0.277344C2.25198 0.277344 0.417603 2.03298 0.417603 4.18994V9.77801C0.417603 11.9347 2.25306 13.6896 4.50808 13.6896H10.3502C12.6049 13.6896 14.4396 11.9339 14.4396 9.77696V4.18836C14.4396 2.03195 12.6041 0.277344 10.3491 0.277344H4.50643ZM11.6352 2.4233C11.9448 2.4233 12.1961 2.66364 12.1961 2.95979C12.1961 3.25593 11.9448 3.49627 11.6352 3.49627C11.3256 3.49627 11.0743 3.25593 11.0743 2.95979C11.0743 2.66364 11.3256 2.4233 11.6352 2.4233ZM7.42859 3.49627C9.43934 3.49627 11.0743 5.06014 11.0743 6.98345C11.0743 8.90676 9.43906 10.4706 7.42859 10.4706C5.41784 10.4706 3.78288 8.90649 3.78288 6.98345C3.78288 5.06041 5.41784 3.49627 7.42859 3.49627ZM7.42859 4.56925C6.03453 4.56925 4.90464 5.65001 4.90464 6.98345C4.90464 8.31689 6.03453 9.39764 7.42859 9.39764C8.82266 9.39764 9.95255 8.31689 9.95255 6.98345C9.95255 5.65001 8.82266 4.56925 7.42859 4.56925Z" fill="#444E62"/>
</svg>
