<svg width="18" height="15" viewBox="0 0 18 15" fill="none" xmlns="http://www.w3.org/2000/svg">
<path d="M17.4945 1.93871C16.8854 2.22278 16.2305 2.41216 15.5396 2.50166C16.2421 2.06272 16.7824 1.36262 17.036 0.535452C16.3788 0.941095 15.6507 1.23891 14.8759 1.39592C14.2573 0.70559 13.3748 0.277344 12.3972 0.277344C10.5191 0.277344 8.99712 1.8657 8.99712 3.82397C8.99712 4.10102 9.02788 4.37104 9.08592 4.63312C6.26071 4.48375 3.75498 3.07011 2.0786 0.924601C1.78407 1.44876 1.61837 2.06272 1.61837 2.71059C1.61837 3.94188 2.21731 5.02563 3.13051 5.66433C2.57307 5.64631 2.04842 5.4832 1.58906 5.22142C1.58906 5.23211 1.58906 5.248 1.58906 5.26296C1.58906 6.98359 2.7614 8.41617 4.31532 8.74239C4.03124 8.82425 3.73119 8.86977 3.42185 8.86977C3.20219 8.86977 2.98832 8.8435 2.78113 8.8044C3.21379 10.2104 4.46912 11.2383 5.9563 11.2685C4.79267 12.2182 3.32725 12.7869 1.73357 12.7869C1.45819 12.7869 1.18919 12.7704 0.923096 12.7365C2.42827 13.7399 4.21608 14.3282 6.13506 14.3282C12.3882 14.3282 15.8089 8.92291 15.8089 4.23389C15.8089 4.08025 15.8042 3.92721 15.7972 3.77601C16.465 3.27996 17.0401 2.65378 17.4945 1.93871Z" fill="#444E62"/>
</svg>
