<svg width="46" height="46" viewBox="0 0 46 46" fill="none" xmlns="http://www.w3.org/2000/svg">
<circle cx="23" cy="23" r="23" fill="#CEE5D9"/>
<path d="M14.0005 26.7688C14.0005 27.2984 14.4315 27.7293 14.961 27.7293H20.7545H20.7551H31.5724C32.1022 27.7293 32.533 27.2983 32.533 26.7688V25.9082H14.0007L14.0005 26.7688Z" fill="#006D77"/>
<path d="M31.572 15H14.9605C14.4309 15 14 15.4307 14 15.9603V25.3799H32.5324L32.5325 15.9603C32.5327 15.4307 32.1017 15 31.5719 15H31.572Z" fill="#006D77"/>
<path d="M29.7733 30.4721H26.0937L25.5762 28.2588H20.957L20.4392 30.4721H19.8964L16.7598 30.472C16.6138 30.472 16.4955 30.5903 16.4955 30.7363C16.4955 30.8822 16.6138 31.0005 16.7598 31.0005H20.1054H20.106H20.1065H26.4262H26.4267H26.4273H29.7729C29.9189 31.0005 30.0372 30.8822 30.0372 30.7363C30.0373 30.5903 29.9192 30.4721 29.7732 30.4721H29.7733Z" fill="#006D77"/>
</svg>
