<svg width="102" height="43" viewBox="0 0 102 43" fill="none" xmlns="http://www.w3.org/2000/svg">
    <path d="M57.854 21.982C57.854 21.3513 57.6707 20.86 57.304 20.508C56.952 20.156 56.4827 19.98 55.896 19.98C55.3533 19.98 54.8767 20.1193 54.466 20.398C54.0553 20.6767 53.7547 21.1387 53.564 21.784L50.99 20.992C51.2393 20.024 51.782 19.2467 52.618 18.66C53.4687 18.0733 54.6053 17.78 56.028 17.78C56.996 17.78 57.8393 17.934 58.558 18.242C59.2767 18.5353 59.834 18.9827 60.23 19.584C60.6407 20.1853 60.846 20.9407 60.846 21.85V26.316C60.846 26.8733 61.11 27.152 61.638 27.152C61.8873 27.152 62.122 27.1153 62.342 27.042L62.166 28.912C61.7847 29.1027 61.308 29.198 60.736 29.198C60.2227 29.198 59.7607 29.11 59.35 28.934C58.9393 28.758 58.6167 28.494 58.382 28.142C58.1473 27.7753 58.03 27.3207 58.03 26.778V26.69L58.558 26.602C58.47 27.1593 58.228 27.636 57.832 28.032C57.436 28.4133 56.952 28.7067 56.38 28.912C55.8227 29.1173 55.2433 29.22 54.642 29.22C53.894 29.22 53.2487 29.11 52.706 28.89C52.1633 28.6553 51.7453 28.318 51.452 27.878C51.1587 27.438 51.012 26.8953 51.012 26.25C51.012 25.4287 51.276 24.7613 51.804 24.248C52.332 23.72 53.0873 23.3607 54.07 23.17L58.206 22.334L58.184 24.204L55.544 24.732C55.0453 24.8347 54.664 24.974 54.4 25.15C54.1507 25.3113 54.026 25.5827 54.026 25.964C54.026 26.3307 54.158 26.6093 54.422 26.8C54.7007 26.9907 55.0307 27.086 55.412 27.086C55.72 27.086 56.0207 27.0493 56.314 26.976C56.6073 26.9027 56.8713 26.7853 57.106 26.624C57.3407 26.4627 57.524 26.2427 57.656 25.964C57.788 25.6853 57.854 25.348 57.854 24.952V21.982ZM74.4448 15.382L74.7968 17.538C74.7381 17.538 74.6721 17.538 74.5988 17.538C74.5401 17.5233 74.4741 17.516 74.4008 17.516C73.7261 17.516 73.2201 17.67 72.8828 17.978C72.5454 18.2713 72.3768 18.682 72.3768 19.21L71.1448 18.704C71.1448 18.1173 71.2621 17.5747 71.4968 17.076C71.7314 16.5627 72.0761 16.152 72.5308 15.844C73.0001 15.536 73.5574 15.382 74.2028 15.382C74.2321 15.382 74.2688 15.382 74.3128 15.382C74.3568 15.382 74.4008 15.382 74.4448 15.382ZM70.8368 26.932C72.0248 26.932 72.9414 27.1887 73.5868 27.702C74.2321 28.2153 74.5548 28.934 74.5548 29.858C74.5548 30.694 74.3128 31.398 73.8287 31.97C73.3448 32.5567 72.6628 32.9967 71.7828 33.29C70.9174 33.5833 69.9128 33.73 68.7688 33.73C66.8768 33.73 65.4908 33.466 64.6108 32.938C63.7454 32.41 63.3128 31.7207 63.3128 30.87C63.3128 30.2687 63.5401 29.7627 63.9948 29.352C64.4641 28.9413 65.2341 28.714 66.3048 28.67L66.1948 29.022C65.4321 28.89 64.8454 28.6407 64.4348 28.274C64.0388 27.8927 63.8408 27.372 63.8408 26.712C63.8408 26.0373 64.0974 25.4873 64.6108 25.062C65.1388 24.622 65.8501 24.3653 66.7448 24.292L68.0648 24.908H67.7568C67.1261 24.952 66.6788 25.084 66.4148 25.304C66.1654 25.5093 66.0408 25.744 66.0408 26.008C66.0408 26.316 66.1581 26.5507 66.3928 26.712C66.6421 26.8587 66.9941 26.932 67.4488 26.932H70.8368ZM68.7908 31.662C69.5534 31.662 70.1768 31.596 70.6608 31.464C71.1594 31.332 71.5261 31.1633 71.7608 30.958C72.0101 30.7527 72.1348 30.5253 72.1348 30.276C72.1348 29.9973 72.0248 29.77 71.8048 29.594C71.5848 29.4327 71.1888 29.352 70.6168 29.352H66.8988C66.5468 29.352 66.2534 29.44 66.0188 29.616C65.7988 29.792 65.6888 30.034 65.6888 30.342C65.6888 30.7527 65.9601 31.0753 66.5028 31.31C67.0601 31.5447 67.8228 31.662 68.7908 31.662ZM68.8128 17.78C69.8394 17.78 70.7268 17.934 71.4748 18.242C72.2374 18.5353 72.8168 18.9607 73.2128 19.518C73.6234 20.0753 73.8287 20.7427 73.8287 21.52C73.8287 22.2827 73.6234 22.9427 73.2128 23.5C72.8168 24.0573 72.2374 24.49 71.4748 24.798C70.7268 25.0913 69.8394 25.238 68.8128 25.238C67.1848 25.238 65.9381 24.908 65.0728 24.248C64.2221 23.5733 63.7968 22.664 63.7968 21.52C63.7968 20.7427 63.9948 20.0753 64.3908 19.518C64.8014 18.9607 65.3808 18.5353 66.1288 18.242C66.8768 17.934 67.7714 17.78 68.8128 17.78ZM68.8128 19.672C68.2261 19.672 67.7421 19.8333 67.3608 20.156C66.9794 20.4787 66.7888 20.926 66.7888 21.498C66.7888 22.07 66.9794 22.5247 67.3608 22.862C67.7421 23.1847 68.2261 23.346 68.8128 23.346C69.3994 23.346 69.8761 23.1847 70.2428 22.862C70.6241 22.5247 70.8148 22.07 70.8148 21.498C70.8148 20.926 70.6241 20.4787 70.2428 20.156C69.8761 19.8333 69.3994 19.672 68.8128 19.672ZM81.393 17.78C82.5076 17.78 83.483 18.0073 84.319 18.462C85.1696 18.9167 85.8296 19.5693 86.299 20.42C86.783 21.2707 87.025 22.2973 87.025 23.5C87.025 24.688 86.783 25.7147 86.299 26.58C85.8296 27.4307 85.1696 28.0833 84.319 28.538C83.483 28.9927 82.5076 29.22 81.393 29.22C80.293 29.22 79.3176 28.9927 78.467 28.538C77.6163 28.0833 76.949 27.4307 76.465 26.58C75.9956 25.7147 75.761 24.688 75.761 23.5C75.761 22.2973 75.9956 21.2707 76.465 20.42C76.949 19.5693 77.6163 18.9167 78.467 18.462C79.3176 18.0073 80.293 17.78 81.393 17.78ZM81.393 20.024C80.8356 20.024 80.359 20.156 79.963 20.42C79.5816 20.6693 79.2883 21.0507 79.083 21.564C78.8776 22.0773 78.775 22.7227 78.775 23.5C78.775 24.2773 78.8776 24.9227 79.083 25.436C79.2883 25.9493 79.5816 26.338 79.963 26.602C80.359 26.8513 80.8356 26.976 81.393 26.976C81.9356 26.976 82.3976 26.8513 82.779 26.602C83.175 26.338 83.4756 25.9493 83.681 25.436C83.8863 24.9227 83.989 24.2773 83.989 23.5C83.989 22.7227 83.8863 22.0773 83.681 21.564C83.4756 21.0507 83.175 20.6693 82.779 20.42C82.3976 20.156 81.9356 20.024 81.393 20.024ZM89.5469 29V18H92.2529L92.4289 21.3L92.0549 20.948C92.2309 20.2293 92.5096 19.6353 92.8909 19.166C93.2722 18.6967 93.7342 18.352 94.2769 18.132C94.8342 17.8973 95.4429 17.78 96.1029 17.78C96.8656 17.78 97.5402 17.9267 98.1269 18.22C98.7282 18.5133 99.1976 18.9607 99.5349 19.562C99.8869 20.1487 100.063 20.8893 100.063 21.784V29H97.0489V22.642C97.0489 21.7033 96.8656 21.058 96.4989 20.706C96.1322 20.3393 95.6556 20.156 95.0689 20.156C94.6582 20.156 94.2549 20.2587 93.8589 20.464C93.4776 20.6547 93.1622 20.97 92.9129 21.41C92.6782 21.85 92.5609 22.4367 92.5609 23.17V29H89.5469Z" fill="#101828"></path>
    <circle cx="21.5" cy="21.5" r="21.5" fill="#101828"></circle>
    <path d="M27.2247 15.7338C27.2247 12.7889 24.8152 10.3794 21.8703 10.3794C18.9254 10.3794 16.5159 12.7889 16.5159 15.7338C16.5159 18.6787 18.9254 21.0882 21.8703 21.0882C24.8152 21.0882 27.2247 18.6787 27.2247 15.7338ZM17.7515 15.7338L20.3258 14.2304C20.7376 13.9833 21.2525 14.2922 21.2525 14.7659V15.7338C21.2525 16.0838 21.5202 16.3516 21.8703 16.3516H25.9273C25.639 18.3286 23.9297 19.8525 21.8703 19.8525C19.605 19.8525 17.7515 17.9991 17.7515 15.7338L17.7515 15.7338Z" fill="white"></path>
    <path d="M32.2909 26.5868C32.1261 26.2985 31.7349 26.1955 31.4465 26.3603C31.1582 26.525 31.0552 26.9163 31.22 27.2046L33.4441 31.0351C33.5471 31.1999 33.6089 31.3852 33.6089 31.5911C33.6089 32.1677 33.1558 32.6208 32.5792 32.6208H29.5519L30.2109 24.7335C30.2521 24.2186 30.0873 23.7038 29.7373 23.3331C29.3872 22.9624 28.8723 22.7358 28.3575 22.7358H15.2189C14.704 22.7358 14.1892 22.9624 13.8391 23.3537C13.489 23.7449 13.3242 24.2598 13.3655 24.7952L14.1892 32.6416H11.1619C10.5853 32.6416 10.1322 32.1885 10.1322 31.6119C10.1322 31.4266 10.194 31.2412 10.2764 31.0765C10.297 31.0559 12.5212 27.2254 12.5212 27.2254C12.6859 26.9371 12.5829 26.5458 12.2946 26.3811C12.0063 26.2163 11.615 26.3193 11.4502 26.6076L9.2673 30.3557C9.02017 30.7264 8.89661 31.1588 8.89661 31.5913C8.89661 32.8476 9.90573 33.8566 11.1619 33.8566H14.8688H14.9306H20.6145H20.6351H32.5796C33.8358 33.8566 34.8449 32.8475 34.8449 31.5913C34.8449 31.1589 34.7213 30.7264 34.4742 30.3557L32.2912 26.587L32.2909 26.5868ZM21.6645 29.3258C20.9848 29.3258 20.4288 28.7698 20.4288 28.0902C20.4288 27.4106 20.9848 26.8545 21.6645 26.8545C22.3441 26.8545 22.9001 27.4106 22.9001 28.0902C22.9001 28.7698 22.3441 29.3258 21.6645 29.3258Z" fill="white"></path>
</svg>