<svg width="29" height="34" viewBox="0 0 29 34" fill="none" xmlns="http://www.w3.org/2000/svg">
<path d="M25.4763 11.8102L25.7726 11.9723L25.9347 12.2686C26.0348 12.4515 26.1972 12.5921 26.3925 12.6647C26.5876 12.7376 26.8025 12.7376 26.9978 12.6647C27.1929 12.5921 27.3554 12.4515 27.4553 12.2686L27.6174 11.9723L27.9137 11.8102C28.0966 11.7101 28.2372 11.5478 28.3101 11.3525C28.3827 11.1574 28.3827 10.9425 28.3101 10.7471C28.2372 10.5521 28.0965 10.3895 27.9137 10.2897L27.6174 10.1275L27.4553 9.83123C27.3554 9.64837 27.1929 9.50771 26.9978 9.43485C26.8025 9.36221 26.5876 9.36221 26.3925 9.43485C26.1972 9.50772 26.0348 9.64838 25.9347 9.83123L25.7726 10.1275L25.4763 10.2922C25.2937 10.392 25.153 10.5546 25.0802 10.7497C25.0075 10.945 25.0075 11.1599 25.0802 11.3552C25.153 11.5503 25.2937 11.7129 25.4763 11.8127V11.8102ZM25.8483 10.9708L26.3203 10.7125C26.3355 10.704 26.348 10.6916 26.3565 10.6763L26.6148 10.2036C26.6309 10.1743 26.6618 10.1561 26.6955 10.1566C26.7289 10.1561 26.7596 10.1743 26.7755 10.2036L27.0338 10.6763C27.0423 10.6913 27.0547 10.704 27.07 10.7125L27.5427 10.9708H27.5424C27.572 10.987 27.5902 11.0176 27.5902 11.0511C27.5902 11.0847 27.572 11.1154 27.5424 11.1315L27.0697 11.3898H27.07C27.0547 11.3983 27.0423 11.4108 27.0338 11.426L26.7755 11.898C26.7598 11.9275 26.7289 11.9458 26.6955 11.9458C26.6618 11.9458 26.6309 11.9275 26.6148 11.898L26.3565 11.426C26.3482 11.4106 26.3357 11.3981 26.3203 11.3898L25.8483 11.1315C25.8183 11.1156 25.7996 11.0845 25.7996 11.0506C25.7996 11.0165 25.8183 10.9853 25.8483 10.9694V10.9708Z" fill="#006D77"/>
<path d="M1.0497 20.2114L1.5713 20.4969L1.85677 21.0185C1.96146 21.2103 2.13163 21.3577 2.33617 21.434C2.54094 21.5103 2.76599 21.5103 2.97076 21.434C3.17529 21.3577 3.34548 21.2103 3.45016 21.0185L3.73494 20.4969L4.25654 20.2114C4.44816 20.1067 4.59528 19.9363 4.6716 19.7318C4.7477 19.5272 4.7477 19.3022 4.6716 19.0976C4.59527 18.8931 4.44816 18.7229 4.25654 18.618L3.73494 18.3332L3.44947 17.8109C3.34479 17.6196 3.17437 17.4722 2.96984 17.3961C2.76531 17.3198 2.54025 17.3198 2.33572 17.3961C2.13119 17.4722 1.96101 17.6196 1.85609 17.8109L1.57062 18.3332L1.04971 18.6212C0.858323 18.7262 0.710974 18.8963 0.634883 19.1009C0.558555 19.3054 0.558555 19.5305 0.634883 19.735C0.71098 19.9395 0.858329 20.1099 1.04971 20.2146L1.0497 20.2114ZM1.42165 19.2978L2.10789 18.9226V18.9228C2.13026 18.9104 2.14848 18.8922 2.16093 18.8698L2.53679 18.1828H2.53656C2.56008 18.1404 2.60482 18.1139 2.65347 18.1139C2.70213 18.1139 2.74686 18.1404 2.77039 18.1828L3.14625 18.8698H3.14602C3.15847 18.8922 3.17669 18.9104 3.19906 18.9228L3.8853 19.298V19.2978C3.92819 19.3211 3.95494 19.366 3.95494 19.4147C3.95494 19.4636 3.92819 19.5083 3.8853 19.5316L3.19906 19.9075C3.17646 19.9194 3.15824 19.9379 3.14602 19.9603L2.77016 20.6465L2.77039 20.6467C2.7471 20.6894 2.70213 20.7161 2.65347 20.7161C2.60482 20.7161 2.55986 20.6894 2.53656 20.6467L2.1607 19.9605L2.16093 19.9603C2.14871 19.9379 2.13049 19.9194 2.10789 19.9075L1.42165 19.5316C1.37876 19.5083 1.35201 19.4636 1.35201 19.4147C1.35201 19.366 1.37876 19.3211 1.42165 19.2978Z" fill="#006D77"/>
<path d="M13.3187 19.0327C13.5369 18.9391 13.6319 18.9093 13.7642 18.9681C14.0368 19.0924 14.3499 19.0924 14.6225 18.9681C14.7556 18.9086 14.8503 18.9384 15.0687 19.0327H15.0685C15.2294 19.1134 15.4054 19.16 15.585 19.1694C15.6581 19.1694 15.7307 19.1591 15.8008 19.1385C16.0031 19.0767 16.1183 18.8641 16.0598 18.6607C16.0014 18.4576 15.7907 18.3388 15.5864 18.394C15.5124 18.3794 15.4406 18.3545 15.3733 18.3204C15.1286 18.2157 14.7593 18.0571 14.3034 18.2623C14.2335 18.2955 14.1521 18.2955 14.082 18.2623C13.63 18.0571 13.2569 18.2157 13.0128 18.3204C12.9454 18.3538 12.8739 18.379 12.8004 18.3946C12.6998 18.3591 12.5889 18.3667 12.4941 18.4154C12.3991 18.4643 12.3286 18.5501 12.2991 18.6527C12.2695 18.7551 12.2836 18.8653 12.3378 18.9571C12.3922 19.0491 12.4819 19.1143 12.5859 19.1378C12.876 19.2225 13.1214 19.1171 13.3187 19.0327L13.3187 19.0327Z" fill="#006D77"/>
<path d="M14.7066 19.6157H13.6781C13.4641 19.6157 13.2907 19.7891 13.2907 20.0031C13.2907 20.2171 13.4641 20.3905 13.6781 20.3905H14.7054C14.9194 20.3905 15.0928 20.2171 15.0928 20.0031C15.0928 19.7891 14.9194 19.6157 14.7054 19.6157H14.7066Z" fill="#006D77"/>
<path d="M21.9427 24.967L21.8505 24.9297C21.8228 24.5114 21.7801 24.0949 21.7213 23.6882V23.6879C21.6745 23.3681 21.4746 23.0914 21.1854 22.9468L19.7475 22.2223C19.4689 22.0814 19.1396 22.0814 18.8611 22.2223C18.5855 22.357 18.3909 22.6148 18.3367 22.9164C18.3213 23.0017 18.3019 23.0907 18.2804 23.183V23.1832C18.1873 23.0727 18.101 22.9567 18.0222 22.8357C17.7266 22.3837 17.5663 21.8504 17.4805 21.4275V21.4277C18.1338 20.8639 18.751 20.2603 19.3291 19.6199C19.8669 19.0342 20.2635 18.3286 20.5598 17.5627C23.4168 16.8744 23.5661 13.9768 23.659 12.1805H23.6588C23.6816 11.7283 23.579 11.2784 23.3625 10.8806C23.1462 10.4828 22.8242 10.1524 22.432 9.92571C22.3236 8.82235 22.0008 7.54137 21.4911 6.56186H21.4914C21.6503 6.51943 21.7831 6.41013 21.8555 6.26232C21.9415 6.08892 21.9314 5.88323 21.8283 5.71928C21.0201 4.41645 19.5272 3.29763 17.7768 2.65838C17.8411 2.50872 17.8381 2.339 17.7689 2.19166C17.6997 2.04454 17.5708 1.93386 17.4147 1.88797C17.0158 1.76714 16.6109 1.66729 16.2013 1.58912C16.2007 1.44939 16.1555 1.3138 16.0722 1.20173C15.9032 0.98682 15.6537 0.849849 15.3814 0.822635C14.5936 0.725788 13.797 0.725788 13.0092 0.822635C12.7369 0.850076 12.4874 0.986814 12.3177 1.20173C12.2107 1.34493 12.1676 1.52594 12.1989 1.70212C10.6946 2.14185 9.62344 3.02708 9.09978 4.03038C9.0917 4.04814 9.07672 4.06197 9.0585 4.06912C7.71901 4.48211 6.60592 5.4236 5.97688 6.67619C5.88233 6.86181 5.90424 7.08526 6.03291 7.24898C6.15466 7.4067 6.35274 7.48533 6.54944 7.45351C6.28541 8.24837 6.09955 9.06696 5.99486 9.89801C5.59248 10.1215 5.26087 10.4533 5.03767 10.8557C4.81446 11.2581 4.70861 11.7151 4.7319 12.1747C4.82414 13.9721 4.97333 16.8718 7.83495 17.5581C8.13126 18.3218 8.52763 19.0283 9.06564 19.6138C9.64212 20.2542 10.258 20.858 10.9097 21.4216C10.7985 21.9697 10.6087 22.4643 10.3673 22.8342V22.8345C10.288 22.9548 10.2018 23.0708 10.1091 23.1811C10.0871 23.0888 10.0678 22.9996 10.0523 22.9145H10.0521C9.99814 22.6129 9.80329 22.3551 9.52797 22.2204C9.24918 22.0793 8.92012 22.0793 8.64131 22.2204L7.20082 22.9468C6.91281 23.0909 6.71312 23.3667 6.66631 23.6854C6.60751 24.0921 6.56485 24.5086 6.53718 24.9269L6.4454 24.9642C3.6963 26.1202 1.50611 28.6816 0.278376 32.1797C0.210123 32.3766 0.24125 32.594 0.361622 32.764C0.481993 32.9339 0.677074 33.0354 0.885296 33.0365H27.502C27.7103 33.0352 27.9049 32.9337 28.0252 32.7637C28.1454 32.5938 28.1763 32.3763 28.1083 32.1797C26.8808 28.6816 24.6902 26.1201 21.943 24.9672L21.9427 24.967ZM16.7555 2.88154C16.792 3.05333 16.9188 3.19191 17.0867 3.24311C18.7248 3.74879 20.1517 4.70508 20.9742 5.83683C20.8112 5.86174 20.6705 5.96505 20.5979 6.11308C20.5208 6.2685 20.5301 6.45252 20.6223 6.5994C21.1155 7.39102 21.4617 8.57053 21.6116 9.62359C21.2454 9.55902 20.8457 9.50484 20.4261 9.45434C20.151 8.60924 19.648 7.81692 18.9166 7.08546H18.9164C18.8057 6.975 18.6395 6.9418 18.4949 7.00152C18.3503 7.06124 18.2558 7.20213 18.2553 7.35871C18.2553 7.53926 18.2336 7.71913 18.1907 7.8946C17.7469 7.47746 17.2721 7.0949 16.7703 6.74969C16.6619 6.04733 16.5296 5.45837 16.4106 4.92384C16.1975 3.97219 16.0322 3.23477 16.1014 2.35668C16.3352 2.40326 16.5752 2.4586 16.8227 2.52524C16.7547 2.63062 16.7304 2.7586 16.7556 2.88151L16.7555 2.88154ZM16.9841 9.17548C16.9704 8.67694 16.9414 8.22177 16.9015 7.80205V7.80228C17.309 8.1235 17.6936 8.47259 18.0526 8.84708C18.134 8.93194 18.2498 8.97507 18.3669 8.96469C18.4841 8.95408 18.5901 8.8909 18.6549 8.79266C18.7624 8.61949 18.8454 8.43225 18.9017 8.23624C19.1705 8.58029 19.3926 8.95844 19.5621 9.36085C18.7145 9.27899 17.8209 9.21834 16.9841 9.17569L16.9841 9.17548ZM13.105 1.58993C13.8293 1.50069 14.5622 1.50069 15.2867 1.58993C15.3321 1.59523 15.3759 1.60976 15.4158 1.63236C15.1723 2.94445 15.3854 3.89214 15.6533 5.09237C15.8786 6.09957 16.1523 7.32495 16.2072 9.13993C15.4202 9.10903 14.7171 9.09474 14.1927 9.09474C13.6684 9.09474 12.966 9.10903 12.1829 9.13993C12.2371 7.32495 12.5108 6.09957 12.7368 5.09237C13.0047 3.89468 13.2178 2.94416 12.9743 1.63236H12.9745C13.0146 1.60976 13.0591 1.59523 13.105 1.58993H13.105ZM11.4069 9.17489C10.5676 9.21755 9.67152 9.27889 8.81786 9.36144C8.96429 8.94153 9.1762 8.54722 9.44602 8.1935C9.72434 7.84024 10.1878 7.40443 10.818 7.3366C10.9324 7.32415 11.0352 7.26143 11.0989 7.1655C11.2474 6.9393 11.4335 6.7403 11.6491 6.5768C11.5091 7.43624 11.4282 8.30442 11.407 9.1749L11.4069 9.17489ZM9.27949 4.80886C9.4974 4.74268 9.6791 4.59095 9.78357 4.38872C10.1161 3.7546 10.9375 2.92055 12.2977 2.47828C12.3429 3.30337 12.184 4.01635 11.9813 4.92349C11.9336 5.13517 11.8845 5.35608 11.8347 5.58989L11.8349 5.58966C11.3232 5.79789 10.8798 6.14516 10.5551 6.59226C9.91338 6.7124 9.32259 7.09725 8.837 7.71433H8.83723C8.44154 8.23408 8.14774 8.82371 7.97136 9.45251C7.56275 9.50163 7.17213 9.55582 6.81381 9.61646C6.92749 8.89332 7.15093 7.96936 7.4595 7.22291L7.45926 7.22314C7.52844 7.06195 7.50146 6.87564 7.38962 6.74074C7.27663 6.60584 7.09885 6.54427 6.92659 6.58001C7.48186 5.73468 8.3136 5.10859 9.27953 4.80883L9.27949 4.80886ZM6.90601 10.3866C9.10127 10.0103 12.5419 9.87011 14.1935 9.87011C15.845 9.87011 19.2837 10.0108 21.4803 10.3866L21.4801 10.3869C21.9002 10.4583 22.2775 10.6864 22.5364 11.0247C16.9861 10.5388 11.4037 10.5375 5.85354 11.0201C6.11226 10.6843 6.48789 10.4581 6.90596 10.3869L6.90601 10.3866ZM5.50424 12.1345C5.49917 12.0323 5.50332 11.93 5.51647 11.8285C11.2891 11.3 17.0979 11.3 22.8706 11.8285C22.8837 11.929 22.8876 12.0307 22.8821 12.132C22.758 14.5513 22.4114 16.7374 19.5756 16.9176C18.4662 16.991 17.3525 16.8734 16.2828 16.5701C14.9172 16.1811 13.4702 16.1811 12.1047 16.5701C11.0352 16.8734 9.92148 16.991 8.81186 16.9176C5.97486 16.7401 5.62876 14.5531 5.50426 12.1345H5.50424ZM9.63645 19.0896C9.26382 18.6736 8.95895 18.2016 8.73256 17.6911H8.76231C8.9929 17.7054 9.22326 17.713 9.4518 17.713C10.4207 17.7144 11.3853 17.5806 12.3174 17.3152C13.5439 16.9654 14.844 16.9654 16.0705 17.3152C17.2253 17.6429 18.4276 17.7699 19.6255 17.6911H19.6597C19.4335 18.2016 19.1284 18.6737 18.7558 19.0896C17.6911 20.2486 17.03 20.8213 15.9518 21.6683C15.4509 22.0622 14.8322 22.2764 14.1951 22.2764C13.558 22.2764 12.9395 22.0622 12.4387 21.6683C11.3611 20.8211 10.7 20.2486 9.63516 19.0896L9.63645 19.0896ZM11.0163 23.2566C11.2677 22.8593 11.4561 22.4254 11.5748 21.9704C11.6989 22.0698 11.8273 22.1712 11.9622 22.2778C12.5991 22.7793 13.3861 23.0519 14.1967 23.0519C15.0074 23.0519 15.7944 22.7793 16.4313 22.2778C16.5655 22.1726 16.6896 22.0719 16.8148 21.9736C16.9342 22.4274 17.1226 22.8603 17.3733 23.2566C17.558 23.5416 17.777 23.8029 18.0254 24.0347C17.7083 24.9213 17.317 25.7796 16.8556 26.6005C15.0768 27.6368 13.3181 27.6335 11.5308 26.5954C11.0705 25.7761 10.6799 24.9194 10.3636 24.0347C10.6119 23.8031 10.8305 23.5416 11.015 23.2566L11.0163 23.2566ZM10.7168 32.2613H1.07161C2.19829 29.1672 4.11522 26.8855 6.50157 25.7879C6.48405 26.6245 6.53685 27.4613 6.65907 28.2891C6.8327 29.4043 7.22079 30.7646 8.08598 30.9112C8.13094 30.9186 8.17614 30.9223 8.22157 30.9223C8.79759 30.9223 9.79446 30.4115 11.3415 29.4907C11.2034 30.088 10.7726 32.0171 10.7152 32.2613L10.7168 32.2613ZM9.49004 29.6528C8.49642 30.1693 8.24206 30.1518 8.21673 30.1481C8.01727 30.1145 7.6421 29.5599 7.42583 28.171C7.22429 26.8739 7.22706 25.2391 7.43413 23.7986C7.4452 23.7303 7.48878 23.6718 7.55104 23.6418L8.99088 22.9147C9.05175 22.8841 9.1237 22.8841 9.18457 22.9147C9.24038 22.9415 9.27981 22.9934 9.29111 23.0543C9.58304 24.6465 10.6972 26.8791 11.5979 28.1725V28.1722C11.6249 28.2098 11.639 28.2552 11.6374 28.3014C11.6291 28.3304 11.6205 28.3613 11.6115 28.3943V28.3945C11.594 28.4275 11.568 28.4549 11.5361 28.4745L11.3535 28.5843C10.8324 28.8954 10.1208 29.3247 9.48942 29.6529L9.49004 29.6528ZM11.5103 32.2613C11.5536 32.0676 12.1843 29.2558 12.3457 28.6456C12.3632 28.5981 12.3771 28.5492 12.387 28.4997C12.4368 28.2626 12.3978 28.0154 12.2779 27.8049C13.509 28.2723 14.8684 28.2741 16.1009 27.8102C15.9838 28.0198 15.9469 28.2649 15.9969 28.4996C16.008 28.5492 16.023 28.5977 16.0414 28.6449C16.2028 29.2564 16.8337 32.0669 16.8768 32.2606L11.5103 32.2613ZM16.8531 28.4727V28.4724C16.8211 28.4533 16.7948 28.4259 16.7768 28.3931C16.7678 28.3594 16.7593 28.3285 16.751 28.2995C16.7503 28.2534 16.7639 28.2082 16.7904 28.1704C17.6911 26.879 18.8062 24.6444 19.0979 23.0521C19.1085 22.991 19.1484 22.9391 19.2045 22.9129C19.2344 22.8979 19.2674 22.89 19.3006 22.8903C19.3343 22.89 19.3673 22.8981 19.397 22.9133L20.8375 23.6404H20.8373C20.8995 23.671 20.9429 23.7296 20.9542 23.7979C21.1608 25.2383 21.164 26.873 20.962 28.1703C20.7464 29.5592 20.3712 30.1138 20.1718 30.1474C20.1459 30.1513 19.8923 30.1686 18.8984 29.6521C18.2671 29.3242 17.5548 28.8948 17.0351 28.5817L16.8531 28.4727ZM17.6717 32.2613C17.6168 32.0178 17.1842 30.0887 17.0454 29.4914C18.595 30.4122 19.59 30.9229 20.1658 30.9229V30.9227C20.211 30.9229 20.2562 30.9193 20.3009 30.9119C21.168 30.7652 21.5553 29.4036 21.7271 28.2898C21.85 27.4618 21.9028 26.6247 21.8846 25.7879C24.2736 26.8855 26.1886 29.1665 27.3146 32.2607L17.6717 32.2613Z" fill="#006D77"/>
</svg>
