<svg width="34" height="34" viewBox="0 0 34 34" fill="none" xmlns="http://www.w3.org/2000/svg">
<path d="M25.8277 13.9839C25.1245 12.9924 24.259 12.1267 23.2674 11.4235C23.1078 11.3099 22.8988 11.2913 22.7216 11.3752L20.9576 12.2095C20.6106 12.0397 20.2531 11.8915 19.888 11.766L19.2315 9.78769V9.78745C19.158 9.56595 18.9508 9.4165 18.7174 9.4165H15.2831C15.0498 9.4165 14.8426 9.56595 14.769 9.78769L14.1048 11.7897L13.066 12.2204L11.279 11.3752C11.1022 11.2921 10.8942 11.3102 10.7346 11.4226C9.74318 12.1256 8.87725 12.9911 8.17383 13.9823C8.06018 14.1424 8.04156 14.351 8.12523 14.5285L8.9706 16.3155L8.53993 17.3544L6.53842 18.0184V18.0187C6.31668 18.0922 6.16699 18.2994 6.16699 18.5328V21.967C6.16699 22.2004 6.31668 22.4076 6.53842 22.4811L8.53993 23.1452L8.9706 24.184L8.12523 25.9713C8.0418 26.148 8.05993 26.3563 8.17286 26.5158C8.87604 27.5073 9.74153 28.373 10.7332 29.0762C10.8954 29.192 11.1087 29.2089 11.2874 29.1202L12.9071 28.3186L12.4269 27.3479L11.1029 28.003C10.4011 27.4703 9.77535 26.8447 9.24235 26.1432L10.0527 24.4304C10.118 24.2921 10.1218 24.1327 10.0633 23.9913L9.44596 22.5017C9.38575 22.3564 9.26533 22.2444 9.11589 22.1948L7.25026 21.576V18.9238L9.11589 18.305C9.26533 18.2554 9.38576 18.1434 9.44596 17.9981L10.0633 16.5086C10.1218 16.3671 10.118 16.2077 10.0527 16.0694L9.24284 14.3576C9.77653 13.654 10.4038 13.0264 11.107 12.4923L12.8198 13.3023C12.9581 13.3681 13.1177 13.372 13.2589 13.3132L14.7485 12.6956C14.8935 12.6354 15.0055 12.515 15.0553 12.3658L15.6741 10.4999H18.3264L18.9452 12.3658C19.0003 12.5312 19.1314 12.6601 19.2975 12.7123C19.7804 12.8625 20.2483 13.0564 20.6957 13.2919C20.8466 13.3718 21.0265 13.3756 21.1808 13.3023L22.8926 12.4928C23.5962 13.0264 24.224 13.6535 24.7582 14.3566L23.9478 16.0694C23.8748 16.2237 23.8789 16.4034 23.959 16.5543C24.194 17.0016 24.3879 17.4695 24.5381 17.9522C24.5901 18.1188 24.719 18.2499 24.8846 18.3048L26.7503 18.9238V21.5761L24.8846 22.1949C24.719 22.2498 24.5901 22.3811 24.5381 22.5474C24.3879 23.0301 24.194 23.4982 23.959 23.9456C23.8789 24.0963 23.8748 24.2762 23.9478 24.4305L24.7577 26.1422V26.142C24.2252 26.844 23.5999 27.4703 22.8989 28.0035L21.5737 27.3479L21.0935 28.3186L22.7132 29.1202C22.8914 29.2084 23.1037 29.192 23.266 29.0771C24.2574 28.3742 25.1233 27.5087 25.8268 26.5175C25.9404 26.3574 25.959 26.1487 25.8754 25.9712L25.0411 24.2074C25.2108 23.8602 25.3588 23.5028 25.4843 23.1374L27.4621 22.4811C27.6839 22.4076 27.8336 22.2004 27.8336 21.967V18.5327C27.8336 18.2994 27.6839 18.0921 27.4621 18.0186L25.4843 17.3623V17.3625C25.3588 16.9969 25.2108 16.6395 25.0411 16.2923L25.8754 14.5285C25.9588 14.3517 25.9407 14.1435 25.8277 13.9839L25.8277 13.9839Z" fill="#006D77"/>
<path d="M14.2917 31.0836V32.7086C14.2917 32.8522 14.3488 32.99 14.4504 33.0916C14.5519 33.1931 14.6898 33.2502 14.8334 33.2502H19.1667C19.3104 33.2502 19.4482 33.1931 19.5498 33.0916C19.6513 32.99 19.7084 32.8522 19.7084 32.7086V31.0836C19.852 31.0836 19.9899 31.0265 20.0914 30.9249C20.193 30.8234 20.2501 30.6855 20.2501 30.5419V29.7318C20.289 27.6911 20.9839 25.7172 22.2322 24.1023C23.059 22.9885 23.5037 21.6375 23.5001 20.2502C23.502 18.1471 22.4866 16.1732 20.7746 14.9517C19.0628 13.7305 16.8656 13.4128 14.8777 14.0991C12.89 14.7856 11.3568 16.391 10.7632 18.4085C10.1695 20.426 10.5883 22.6062 11.8876 24.2597C13.1291 25.9074 13.7847 27.9228 13.7501 29.9857V30.5418C13.7501 30.6855 13.8071 30.8233 13.9087 30.9249C14.0102 31.0264 14.1481 31.0835 14.2917 31.0835V31.0836ZM18.6251 32.1669H15.3751V31.0836H18.6251V32.1669ZM12.7393 23.59C11.803 22.4029 11.4081 20.8773 11.6506 19.385C11.8448 18.2231 12.4099 17.1555 13.2614 16.3413C14.1128 15.5274 15.2049 15.0106 16.3743 14.8687C17.7794 14.7047 19.1928 15.0972 20.3125 15.9621C21.4318 16.8269 22.1684 18.0957 22.3645 19.4965C22.5606 20.8976 22.2005 22.3197 21.3614 23.4587C19.9744 25.2595 19.2049 27.4593 19.1667 29.7321V30.0005H17.5417V25.6125C18.4265 25.4319 19.1629 24.8223 19.5058 23.9868C19.8484 23.1516 19.7524 22.2003 19.2495 21.4504C18.7465 20.7005 17.903 20.2505 17.0001 20.2505C16.0971 20.2505 15.2537 20.7005 14.7507 21.4504C14.2477 22.2002 14.1517 23.1515 14.4944 23.9868C14.8373 24.8223 15.5736 25.4319 16.4584 25.6125V30.0005H14.8334V29.986C14.8675 27.6801 14.1305 25.429 12.7393 23.59L12.7393 23.59ZM17.0001 24.5839C16.5691 24.5839 16.1556 24.4127 15.851 24.108C15.5463 23.8033 15.3751 23.3898 15.3751 22.9589C15.3751 22.528 15.5463 22.1145 15.851 21.8098C16.1557 21.5052 16.5692 21.3339 17.0001 21.3339C17.4309 21.3339 17.8445 21.5051 18.1491 21.8098C18.4538 22.1145 18.625 22.528 18.625 22.9589C18.6245 23.3898 18.4531 23.8028 18.1486 24.1075C17.844 24.412 17.4309 24.5834 17 24.5839L17.0001 24.5839Z" fill="#006D77"/>
<path d="M12.6667 2.40304V5.05529C12.6672 5.49346 12.8416 5.91372 13.1516 6.2235C13.4613 6.5335 13.8816 6.70785 14.3198 6.70833H15.6268L16.5493 8.09221C16.6499 8.24287 16.8189 8.3333 17 8.3333C17.1811 8.3333 17.3502 8.24287 17.4507 8.09221L18.3733 6.70833H19.6802C20.1184 6.70785 20.5387 6.5335 20.8485 6.2235C21.1585 5.91373 21.3328 5.49345 21.3333 5.05529V2.40304C21.3328 1.96487 21.1585 1.54461 20.8485 1.23484C20.5387 0.924831 20.1184 0.750483 19.6802 0.75H14.3197C13.8815 0.750484 13.4612 0.924831 13.1515 1.23484C12.8415 1.5446 12.6671 1.96488 12.6666 2.40304H12.6667ZM13.7501 2.40304C13.7503 2.08844 14.0052 1.83357 14.3198 1.83333H19.6804C19.995 1.83357 20.2498 2.08844 20.2501 2.40304V5.05529C20.2498 5.36989 19.995 5.62476 19.6804 5.62501H18.0834C17.9023 5.62501 17.7333 5.71544 17.6327 5.86609L17.0001 6.81522L16.3674 5.86634V5.8661C16.2669 5.71545 16.0978 5.62501 15.9167 5.62501H14.3197C14.0051 5.62477 13.7503 5.3699 13.75 5.0553L13.7501 2.40304Z" fill="#006D77"/>
<path d="M28.375 0.75C27.082 0.75 25.842 1.26362 24.9279 2.1779C24.0136 3.09198 23.5 4.332 23.5 5.625C23.5 6.918 24.0136 8.15802 24.9279 9.07211C25.842 9.98644 27.082 10.5 28.375 10.5C29.668 10.5 30.908 9.98638 31.8221 9.07211C32.7364 8.15802 33.25 6.918 33.25 5.625C33.2485 4.33249 32.7344 3.0934 31.8206 2.17938C30.9065 1.26554 29.6675 0.751486 28.375 0.75ZM28.375 9.41667C27.3693 9.41667 26.4049 9.01719 25.694 8.30603C24.9828 7.59512 24.5833 6.63077 24.5833 5.625C24.5833 4.61923 24.9828 3.65494 25.694 2.94397C26.4049 2.2328 27.3692 1.83333 28.375 1.83333C29.3808 1.83333 30.3451 2.23281 31.056 2.94397C31.7672 3.65488 32.1667 4.61923 32.1667 5.625C32.1655 6.63021 31.7657 7.59413 31.0548 8.3048C30.3441 9.01571 29.3802 9.41543 28.375 9.41667Z" fill="#006D77"/>
<path d="M5.625 10.5C6.918 10.5 8.15802 9.98638 9.07211 9.07211C9.98644 8.15802 10.5 6.918 10.5 5.625C10.5 4.332 9.98638 3.09198 9.07211 2.1779C8.15802 1.26356 6.918 0.75 5.625 0.75C4.332 0.75 3.09198 1.26362 2.1779 2.1779C1.26356 3.09198 0.75 4.332 0.75 5.625C0.751451 6.91751 1.26555 8.1566 2.17938 9.07062C3.09347 9.98446 4.33249 10.4985 5.625 10.5ZM5.625 1.83333C6.6307 1.83333 7.59506 2.23281 8.30603 2.94397C9.0172 3.65488 9.41667 4.61923 9.41667 5.625C9.41667 6.63077 9.01719 7.59506 8.30603 8.30603C7.59512 9.0172 6.63077 9.41667 5.625 9.41667C4.61923 9.41667 3.65494 9.01719 2.94397 8.30603C2.2328 7.59512 1.83333 6.63077 1.83333 5.625C1.83454 4.61979 2.23427 3.65587 2.9452 2.9452C3.65587 2.23429 4.61979 1.83457 5.625 1.83333Z" fill="#006D77"/>
<path d="M28.375 5.08317C28.0759 5.08317 27.8333 4.84063 27.8333 4.5415C27.8333 4.24238 28.0759 3.99984 28.375 3.99984H29.4583V2.9165H28.375C27.7944 2.9165 27.258 3.22627 26.9676 3.729C26.6775 4.23174 26.6775 4.85128 26.9676 5.354C27.2581 5.85674 27.7944 6.1665 28.375 6.1665C28.6741 6.1665 28.9166 6.40905 28.9166 6.70817C28.9166 7.00729 28.6741 7.24984 28.375 7.24984H27.2916V8.33317H28.375C28.9556 8.33317 29.4919 8.0234 29.7823 7.52067C30.0725 7.01794 30.0725 6.3984 29.7823 5.89567C29.4919 5.39294 28.9556 5.08317 28.375 5.08317Z" fill="#006D77"/>
<path d="M14.8334 2.9165H17V3.99984H14.8334V2.9165Z" fill="#006D77"/>
<path d="M18.0834 2.9165H19.1667V3.99984H18.0834V2.9165Z" fill="#006D77"/>
<path d="M3.45837 5.625H4.54171V7.25H3.45837V5.625Z" fill="#006D77"/>
<path d="M5.08325 4.5415H6.16659V7.24984H5.08325V4.5415Z" fill="#006D77"/>
<path d="M6.70837 3.4585H7.79171V7.25016H6.70837V3.4585Z" fill="#006D77"/>
<path d="M31.0833 11.0415H32.1666V12.1248H31.0833V11.0415Z" fill="#006D77"/>
<path d="M31.0833 13.2085H32.1666V14.2918H31.0833V13.2085Z" fill="#006D77"/>
<path d="M31.0833 15.375H32.1666V16.4583H31.0833V15.375Z" fill="#006D77"/>
<path d="M31.0833 17.5415H32.1666V18.6248H31.0833V17.5415Z" fill="#006D77"/>
<path d="M31.0833 19.7085H32.1666V20.7918H31.0833V19.7085Z" fill="#006D77"/>
<path d="M28.9167 19.7085H30.0001V20.7918H28.9167V19.7085Z" fill="#006D77"/>
<path d="M1.83337 11.0415H2.91671V12.1248H1.83337V11.0415Z" fill="#006D77"/>
<path d="M1.83337 13.2085H2.91671V14.2918H1.83337V13.2085Z" fill="#006D77"/>
<path d="M1.83337 15.375H2.91671V16.4583H1.83337V15.375Z" fill="#006D77"/>
<path d="M1.83337 17.5415H2.91671V18.6248H1.83337V17.5415Z" fill="#006D77"/>
<path d="M1.83337 19.7085H2.91671V20.7918H1.83337V19.7085Z" fill="#006D77"/>
<path d="M4 19.7085H5.08333V20.7918H4V19.7085Z" fill="#006D77"/>
<path d="M16.4583 22.4165H17.5416V23.4998H16.4583V22.4165Z" fill="#006D77"/>
</svg>
