<svg width="14" height="14" viewBox="0 0 14 14" fill="none" xmlns="http://www.w3.org/2000/svg">
<path d="M14 0.277344H0.615356V13.6896H14V0.277344ZM5.07689 10.7091H3.20082V5.4932H5.07689V10.7091ZM4.10577 4.53721C3.53246 4.53721 3.14951 4.15422 3.14951 3.64306C3.14951 3.13191 3.53172 2.74892 4.16897 2.74892C4.74228 2.74892 5.12523 3.13191 5.12523 3.64306C5.12523 4.15422 4.74302 4.53721 4.10577 4.53721ZM11.7692 10.7091H9.95336V7.85822C9.95336 7.06988 9.46928 6.88807 9.28784 6.88807C9.10641 6.88807 8.50112 7.00953 8.50112 7.85822C8.50112 7.97968 8.50112 10.7091 8.50112 10.7091H6.62505V5.4932H8.50112V6.22119C8.74279 5.79647 9.22687 5.4932 10.1348 5.4932C11.0427 5.4932 11.7692 6.22119 11.7692 7.85822V10.7091Z" fill="#444E62"/>
</svg>
